<svg version="1" xmlns="http://www.w3.org/2000/svg" width="933.333" height="933.333" viewBox="0 0 700.000000 700.000000"><path d="M405.8.5c-.2.2-4.2.6-8.9.9-4.7.4-9.6.8-11 1.1-1.3.2-4.9.6-8 1-3.1.3-6.7.8-8 1.1-1.3.2-4.2.7-6.4 1-3.3.5-25.3 4.7-30.5 5.9-27.9 6.3-39 9.9-57.5 19-31.6 15.4-59.4 37.7-85.1 68-10.9 12.9-23.2 30.9-31.6 46.3-3.1 5.8-3.6 6.3-11.8 10.1-12.2 5.8-17.2 8.7-30.2 17.3-14 9.4-20.3 15.3-21 19.6-.6 4.2 1.4 9.9 4.7 13.1 2.1 2.2 3.4 2.6 8.3 2.6 5.5 0 6-.2 16.2-7.6 18.9-13.5 35.3-22.3 53.5-28.4 3.6-1.3 25.2-6.6 31.5-7.9 1.4-.2 6.1-1.2 10.5-2 4.4-.9 9.1-1.8 10.5-2.1 2.4-.5 10.3-1.8 18.1-2.9 2-.3 6-.8 9-1.1 3-.3 7.2-.8 9.4-1.1 7.8-.9 50.1-1.2 56.5-.3 10.7 1.5 12.2 1.8 20.3 3.9 20.1 5.3 43.3 17.3 65.2 33.9 5.5 4.1 11.3 8.7 12.9 10.1 22.2 19.3 37.1 35.3 57.4 61.5 11.9 15.5 28.6 42.4 39 63 9.2 18.2 18.2 39.4 19.6 46 .3 1.6.9 4.1 1.2 5.5 2.1 9.7 2.6 34.9.9 48.5-2.9 23.9-10.4 53.3-20 78.2-6.4 16.6-7.8 19.7-17.5 38.8-16.9 33.4-37.9 62.3-57.3 79-3.2 2.8-6.6 5.7-7.5 6.6-5.9 5.5-21.8 14-30.8 16.4-3.3.9-9.3 1.8-13.4 2-17.7 1-26.6 1.6-28.5 2-1.1.2-4.2.7-7 1-7.1.8-23.3 4-36.1 7-6 1.5-11.6 2.8-12.4 3-.8.2-5.5 1.3-10.5 2.5-24.1 5.7-33.2 7.5-44.5 8.8-7.9 1-31.4.8-36.5-.2-19.7-4-25.2-5.8-42.5-14.2-15.5-7.6-32.3-19.2-58.2-40.2-15.5-12.6-39.8-34.7-46.2-42.1-1.2-1.4-2.9-3.3-3.9-4.3-10.4-10.8-23.9-34-29.2-50-2.6-7.9-5.9-23.5-6.9-32.3-2.3-20.2-2.4-21.6-3.2-45.5-1.4-43.7-.9-86.2 1.1-95.6 2.9-14 4-18.3 6.6-26.4 1.7-5.2 4.9-13.8 7.1-18.9 3.1-7.3 3.9-10.4 3.5-13.3-.5-4-3.6-8.6-7-10.5-4.8-2.7-13-1-16.8 3.3-2 2.3-8.1 16.6-12 28.2-3.6 10.4-8.5 32-9.6 41.7C-.2 364.4.6 450.2 2.4 472c1.4 16.5 1.8 19.7 5 38.5 1.7 9.6 8.3 29 13.2 38.8 15 29.7 37.6 54.6 83.4 91.8 45.3 36.8 75.4 52.2 112.5 57.3 9.2 1.3 38.6 1.5 44 .3 1.1-.2 4.1-.7 6.6-1.1 8.7-1.3 11.7-1.8 26.4-5.1.6-.1 2.1-.5 3.5-.8 8.6-2.3 45.2-10.8 48.5-11.3 2.2-.3 4.2-.7 4.5-.9 1.7-1 25-3.6 37.3-4.1 17-.7 26.3-2.4 37.7-7 6.8-2.8 24.9-13 27-15.3.3-.4 2.8-2.4 5.5-4.5 8-6.4 24.5-23.3 32.7-33.6 13.5-17.1 27.1-38.5 37.4-59 1.9-3.9 4-7 4.7-7.1.7 0 1.9-.2 2.7-.4.8-.2 3.1-.6 5-.9 8.3-1.5 28.3-9.9 31.8-13.3.7-.7 1.7-1.3 2.2-1.3 2.2 0 19.7-14.5 29.5-24.4 40-40.4 74.1-106.4 89.3-173.1 2.5-10.6 2.7-11.6 4.9-26 1.8-11.8 2.4-44.4 1-54.5-2.4-17.2-10-37.6-24.7-66.5-29.5-57.8-69.4-107.4-114.3-141.9C528 22.2 495.9 7 465 1.9c-6.5-1-58.3-2.3-59.2-1.4zM455 28.3c1.9.3 5.8.9 8.5 1.3 24.3 3.2 58.9 21 88.4 45.5 8.7 7.3 33.2 31.5 40.9 40.5 16.6 19.3 35.9 47 48.7 69.9 11.3 20.1 23.5 46.8 26.9 58.6 6 20.9 5.3 53.8-2 84.9-.9 3.6-1.8 7.5-2 8.8-.2 1.2-2 7.5-4 14-21.6 72-63.5 136.3-104.4 160.2-3.6 2.1-7.5 4.1-8.7 4.5-2.3.6-2.3.6.7-7.6 3.1-8.3 10.6-32.1 11.4-36.2.3-1.2 1.8-8.3 3.5-15.7 1.6-7.4 3.3-16.2 3.7-19.5.3-3.3.8-6.9 1.1-8 .3-1.1.7-11 .9-22 .5-28.5-1.7-40.7-12.2-65.2-14.6-34.2-33-66-55.4-95.8-44.6-59.4-99.9-101.7-150.1-114.9-12.2-3.3-14.5-3.7-28.9-5.1-5.7-.6-41-.6-47-.1-2.5.3-7.9.7-12 1.1-6.7.5-11.1 1.1-24.5 3-2.2.3-5.1.8-6.5 1.1-1.4.2-3.8.7-5.5 1-3.4.5-12.7 2.3-16.4 3-1.3.3-5.1 1.1-8.5 1.9-3.3.8-6.2 1.2-6.4 1-.7-.6 7.9-12.6 16.1-22.4 26.7-32 62.1-57.9 94.3-69 11.6-3.9 43-11.4 57.8-13.7 2.1-.3 4.6-.7 5.5-.9 1.7-.3 15.8-2.4 20.6-3 1.7-.2 7.5-.7 13-1 5.5-.4 10.1-.8 10.2-.9.5-.4 39.2.2 42.3.7z"/><path d="M340.5 67.1c-6 3.8-8 11-4.8 17.6 5.9 12.6 25.3 7.8 25.3-6.2 0-10.4-11.8-17-20.5-11.4zM480.9 98.4c-6.1 1.6-12.2 5.3-19.7 12.1-10.4 9.5-13.2 16.1-13.7 33-.6 16.3 2.9 25.9 13 36.1 9.4 9.3 20.2 13.5 35.5 13.6 15.6 0 27.6-7.5 38.5-24.2 5.9-9.1 8.3-16.1 8-23.7-.8-16.9-11.7-36.4-23.7-42.1-2.4-1.2-6.5-2.4-9.3-2.7-2.7-.4-6.7-1.1-8.9-1.6-5.8-1.6-14.6-1.7-19.7-.5zm20.8 28.5c2.9.6 5.8 1.3 6.4 1.7 2 1.2 6.9 12.8 6.9 16.2 0 4.4-3.2 10.4-8.4 15.7-5.3 5.3-8.1 6.2-16.4 4.7-4.7-.8-7.2-1.8-9.4-3.9-5-4.7-6.1-7.9-5.9-17.1.1-9.3.8-10.6 7.5-16 4.4-3.6 5.8-3.7 19.3-1.3zM603.5 258c-8.1 1.8-12.6 9.3-10.4 17.3 2.9 10.6 17.5 12.7 24.2 3.5 4.3-5.8 1.2-17.3-5.3-19.7-4.5-1.6-5.5-1.8-8.5-1.1zM61.6 225.5c-4.7 1.6-6.1 2.8-8.1 7.1-5.3 11.1 6.9 23.1 18.1 17.8 4-1.9 6.3-4.9 7.3-9.6 2.2-9.9-7.6-18.6-17.3-15.3zM323.5 249.7c-6.8 1.4-11.3 6-12 12-.3 3.2 1.2 8.1 3.4 10.6 3.6 4.3 11.8 5.5 17.1 2.7 2.6-1.4 5.6-5.9 6.4-9.7 1.8-8.1-7-17.3-14.9-15.6zM196 269.8c-9.8 1.5-25.6 14-30 23.6-3.4 7.6-4 25-1.1 33.7 3.9 11.6 14 22 24.7 25.4 21.9 6.9 38.1 1 51-18.3 7.1-10.6 8.7-19 5.9-31.1-3.8-16-15.2-29.1-26.8-30.5-2-.2-6-.9-8.9-1.5-7.1-1.3-11.8-1.8-14.8-1.3zm11.8 28.6c8 1.5 9.2 2.5 11.6 9.3 1.7 4.9 1.2 7.6-2.2 12.3-5.1 6.9-7.2 8.2-12.7 7.7-10.7-1-14-4.7-14-15.6l.1-7.4 4.3-3.8c2.4-2.2 4.6-3.9 5-3.9.3 0 3.9.6 7.9 1.4zM413.5 333.4c-9.4 3-21.8 12.1-28.4 20.9-5.7 7.6-7.2 13.1-7.8 27.9-.8 19.9 2.7 29.8 14.7 41.8 10.8 10.9 22.4 15 41 14.7 9.6-.2 11.1-.5 17.1-3.4 15.5-7.6 32-30.2 33.3-45.4 1.2-13.2-6.7-34-16.7-44.2-6.3-6.5-12.2-9.5-19.5-10.2-2.8-.2-8-1.1-11.7-2-7.9-1.8-16.5-1.8-22-.1zm17 27c3.3.8 7.9 1.7 10.3 1.9 2.4.3 5 1.1 5.8 1.8 2.8 2.3 6.9 10.4 8.5 16.9l1.7 6.5-2.8 5.5c-3.5 6.9-9.1 13.4-14.3 16.7-3.6 2.3-4.7 2.5-10.6 1.9-10.5-.9-15.4-3.1-20-8.8-4.4-5.5-5.3-11.3-4.2-28 .2-3.9 13.9-15.8 18-15.8.9 0 4.3.7 7.6 1.4zM117 405.7c-5.8 1.1-10.9 7.5-10.4 13.1.1 1.5.2 3.4.3 4.3.1 2.2 5 7.3 8.1 8.6 3.3 1.3 9.5.7 12.7-1.4 5.5-3.6 7.4-13.1 3.8-18.7-3-4.6-8.9-6.9-14.5-5.9zM281.3 426c-11.8 7.1-6.8 25 7.1 25 9.9 0 16.1-10.3 11.6-19.5-3.4-7.1-12-9.6-18.7-5.5zM407.4 519.5c-3.5 1.5-7.7 7.4-7.7 10.8-.1 4.7 1.6 8.7 4.9 11.7 3.5 3 4.6 3.4 9.7 3.1 16.3-.8 16.4-24.7.2-26.5-2.3-.3-5.4.1-7.1.9zM258.7 521.6c-.1.1-2.7.4-5.7.8-17.2 1.9-28.2 7.7-37.2 19.6-7.5 10-10.1 18.5-9.9 32.7.3 21 2.4 26.9 13.8 38 15.2 14.9 26.3 18.6 44.3 14.8 3.9-.8 9.4-1.7 12.3-2 13.9-1.5 26.7-14.9 33.2-35 4.9-15.2 3.5-25.9-5.4-40.3-10-16.2-24-26.6-38.1-28.1-3.9-.4-7.1-.6-7.3-.5zm10.5 30.3c4.6 2.9 11 10.6 14.3 17 2.2 4.3 1.4 11.3-2 18.5-3.9 8-6.3 10.4-11.5 11.1-2.5.3-6.1 1-8 1.5-9.1 2.3-11.4 2.2-16-.9-6.7-4.5-11.7-9.8-12.4-13.2-1-5.2-.7-17.4.6-21 2.6-7.6 8.1-12.5 16.3-14.5 8.7-2.1 13.6-1.7 18.7 1.5z"/></svg>