<svg enable-background="new 0 0 512.009 512.009" height="512" viewBox="0 0 512.009 512.009" width="512" xmlns="http://www.w3.org/2000/svg"><path d="m176.64 383.539c-14.352 3.427-26.353 18.723-26.208 33.401l.016 1.592c.154 17.123.936 23.109 16.292 35.056 6.636 5.163 12.632 6.615 17.753 6.615 3.891 0 7.275-.839 10.048-1.526 2.413-.598 4.498-1.115 6.59-1.118 6.972-.011 13.517-4.23 18.927-12.201 6.214-9.155 11.044-23.709 6.962-34.029-5.644-14.273-18.936-29.048-33.42-29.669-6.471-.282-10.956.445-16.96 1.879zm31.765 35.099c.308.988.186 4.997-2.178 10.472-2.164 5.012-4.702 7.734-5.801 8.456-4.224.093-7.798.979-10.698 1.698-5.278 1.308-6.695 1.66-10.707-1.462-4.754-3.698-6.976-5.89-7.67-7.567-.815-1.969-.851-5.914-.904-11.884l-.015-1.609c-.057-5.734 6.066-12.607 10.853-13.75 4.523-1.08 7.252-1.533 11.457-1.351 3.708.159 11.659 6.877 15.663 16.997z"/><path d="m318.837 321.252c14.484-.621 27.776-15.395 33.421-29.668 4.082-10.32-.748-24.874-6.962-34.03-5.41-7.971-11.955-12.19-18.927-12.201-2.092-.003-4.176-.52-6.589-1.118-6.422-1.591-16.123-3.996-27.802 5.088-15.356 11.948-16.138 17.935-16.291 35.058l-.016 1.59c-.146 14.678 11.855 29.974 26.207 33.401 5.153 1.23 9.185 1.938 14.316 1.938.85.001 1.727-.019 2.643-.058zm-23.165-35.082.015-1.61c.054-5.971.089-9.915.903-11.884.694-1.677 2.916-3.87 7.67-7.568 4.011-3.121 5.429-2.77 10.708-1.461 2.899.719 6.474 1.605 10.696 1.698 1.1.722 3.638 3.444 5.802 8.456 2.363 5.475 2.485 9.484 2.194 10.427-4.021 10.165-11.972 16.883-15.681 17.042-4.196.179-6.931-.271-11.456-1.351-4.786-1.143-10.908-8.015-10.851-13.749z"/><path d="m158.812 199.169c-1.194-.002-2.499-.325-4.151-.735-4.872-1.208-13.025-3.227-22.572 4.2-11.767 9.155-12.796 14.256-12.916 27.657l-.012 1.157c-.116 11.866 9.581 24.23 21.177 26.999 3.879.926 7.078 1.485 11.089 1.485.647 0 1.316-.014 2.012-.044 12.252-.525 22.458-12.46 26.756-23.327 3.335-8.435-.436-20.071-5.351-27.313-4.406-6.49-10.098-10.07-16.032-10.079zm2.667 30.325c-2.561 6.234-7.239 10.146-8.899 10.412-2.755.119-4.496-.172-7.598-.913-2.321-.555-5.849-4.593-5.821-7.348l.011-1.175c.031-3.443.061-6.696.452-7.644.164-.395.997-1.492 4.746-4.409 1.882-1.464 1.881-1.463 5.479-.572 2.027.502 4.479 1.111 7.417 1.278 1.996 2.012 4.446 7.906 4.213 10.371z"/><path d="m505.862 166.058c-17.025-43.053-43.963-83.637-75.851-114.276-33.076-31.781-68.779-50.034-100.531-51.397-37.566-1.614-63.045 2.536-99.693 11.287-45.076 10.764-91.284 50.228-115.941 98.71-13.645 5.732-27.255 13.886-40.156 24.147-4.322 3.438-5.04 9.729-1.602 14.051 3.437 4.323 9.728 5.041 14.051 1.602 17.032-13.546 35.229-22.902 52.623-27.055 34.848-8.321 58.979-12.269 94.191-10.759 55.968 2.401 125.651 69.627 158.642 153.047 6.813 17.229 6.297 43.57-1.454 74.173-7.518 29.683-21.38 60.778-38.033 85.313-21.095 31.08-44.616 48.922-64.532 48.954-23.766.037-44.05 5.066-63.667 9.93-17.635 4.372-33.663 8.347-50.189 8.346-21.767-.001-44.392-6.901-72.639-28.877-79.93-62.186-80.068-77.637-80.972-178.164-.032-3.542-.064-7.183-.102-10.93-.186-18.613 4.335-37.957 13.438-57.495 2.332-5.006.165-10.956-4.842-13.288-5.006-2.333-10.955-.165-13.287 4.841-10.373 22.266-15.523 44.518-15.309 66.14.037 3.741.07 7.376.102 10.911.465 51.656.745 82.835 12.113 110.304 12.195 29.467 37.313 52.917 76.577 83.466 32.552 25.326 60.145 32.928 85.345 32.927 19.205 0 37.022-4.417 54.577-8.769 18.459-4.576 37.547-9.309 58.886-9.342 27.029-.042 55.813-20.542 81.05-57.722 7.105-10.467 13.802-22.162 19.808-34.538 25.496-2.467 52.234-22.653 75.862-57.464 34.772-51.231 59.816-131.847 41.535-178.073zm-20.052 81.528c-7.518 29.683-21.38 60.778-38.032 85.313-15.917 23.451-33.215 39.36-49.304 45.773 16.701-42.821 24.021-89.503 11.718-120.612-17.026-43.053-43.964-83.637-75.852-114.276-33.076-31.781-68.778-50.034-100.53-51.396-34.845-1.494-59.302 1.969-91.916 9.465 23.221-35.239 58.355-62.564 92.537-70.726 34.849-8.321 58.983-12.27 94.191-10.759 55.969 2.401 125.651 69.627 158.642 153.047 6.813 17.227 6.297 43.569-1.454 74.171z"/><path d="m372.026 73.47c-1.62-.002-3.328-.426-5.307-.917-5.771-1.431-14.493-3.593-25.05 4.62-13.643 10.614-14.383 16.296-14.516 31.166l-.013 1.36c-.132 13.199 10.657 26.953 23.559 30.033 4.438 1.06 8.091 1.699 12.657 1.699.731 0 1.487-.017 2.272-.05 13.628-.584 25.06-14.059 29.913-26.332 3.689-9.328-.583-22.347-6.114-30.496-6.209-9.147-12.889-11.076-17.401-11.083zm4.867 34.353c-3.512 8.766-10.077 13.489-12.122 13.577-3.444.149-5.606-.208-9.425-1.121-.001 0-.001 0-.001 0-3.466-.828-8.246-6.212-8.204-10.381l.013-1.38c.042-4.773.073-8.222.666-9.653.479-1.158 2.37-2.979 6.131-5.905 1.634-1.271 2.527-1.778 3.807-1.778.984 0 2.197.301 4.149.785 2.457.609 5.462 1.354 9.044 1.484 2.898 2.231 6.617 11.062 5.942 14.372z"/><path d="m87.783 316.494c5.522 0 9.997-4.477 9.997-10s-4.481-10-10.004-10-10 4.477-10 10 4.478 10 10 10z"/><path d="m210.784 329.994c5.522 0 9.996-4.477 9.996-10s-4.481-10-10.004-10-10 4.477-10 10 4.478 10 10 10z"/><path d="m237.776 202.494h.008c5.522 0 9.996-4.477 9.996-10s-4.481-10-10.004-10-10 4.477-10 10 4.478 10 10 10z"/><path d="m292.276 388.994c0 5.523 4.478 10 10 10h.007c5.522 0 9.997-4.477 9.997-10s-4.481-10-10.004-10-10 4.477-10 10z"/><path d="m443.276 188.494c-5.522 0-10 4.477-10 10s4.478 10 10 10h.007c5.522 0 9.997-4.477 9.997-10s-4.482-10-10.004-10z"/><path d="m254.276 47.494c-5.522 0-10 4.477-10 10s4.478 10 10 10h.007c5.522 0 9.997-4.477 9.997-10s-4.482-10-10.004-10z"/><path d="m48.146 184.224c5.522 0 10-4.477 10-10s-4.478-10-10-10h-.007c-5.522 0-9.996 4.477-9.996 10s4.481 10 10.003 10z"/></svg>